<svg id="SvgjsSvg1006" width="970" height="531" xmlns="http://www.w3.org/2000/svg" version="1.1" xmlns:xlink="http://www.w3.org/1999/xlink" xmlns:svgjs="http://svgjs.com/svgjs"><defs id="SvgjsDefs1007"><marker id="SvgjsMarker1045" markerWidth="16" markerHeight="12" refX="16" refY="6" viewBox="0 0 16 12" orient="auto" markerUnits="userSpaceOnUse" stroke-dasharray="0,0"><path id="SvgjsPath1046" d="M0,2 L14,6 L0,11 L0,2" fill="#323232" stroke="#323232" stroke-width="2"></path></marker><marker id="SvgjsMarker1049" markerWidth="16" markerHeight="12" refX="16" refY="6" viewBox="0 0 16 12" orient="auto" markerUnits="userSpaceOnUse" stroke-dasharray="0,0"><path id="SvgjsPath1050" d="M0,2 L14,6 L0,11 L0,2" fill="#323232" stroke="#323232" stroke-width="2"></path></marker><marker id="SvgjsMarker1053" markerWidth="16" markerHeight="12" refX="16" refY="6" viewBox="0 0 16 12" orient="auto" markerUnits="userSpaceOnUse" stroke-dasharray="0,0"><path id="SvgjsPath1054" d="M0,2 L14,6 L0,11 L0,2" fill="#323232" stroke="#323232" stroke-width="2"></path></marker><marker id="SvgjsMarker1057" markerWidth="16" markerHeight="12" refX="16" refY="6" viewBox="0 0 16 12" orient="auto" markerUnits="userSpaceOnUse" stroke-dasharray="0,0"><path id="SvgjsPath1058" d="M0,2 L14,6 L0,11 L0,2" fill="#323232" stroke="#323232" stroke-width="2"></path></marker><marker id="SvgjsMarker1078" markerWidth="16" markerHeight="12" refX="16" refY="6" viewBox="0 0 16 12" orient="auto" markerUnits="userSpaceOnUse" stroke-dasharray="0,0"><path id="SvgjsPath1079" d="M0,2 L14,6 L0,11 L0,2" fill="#323232" stroke="#323232" stroke-width="2"></path></marker><marker id="SvgjsMarker1082" markerWidth="16" markerHeight="12" refX="16" refY="6" viewBox="0 0 16 12" orient="auto" markerUnits="userSpaceOnUse" stroke-dasharray="0,0"><path id="SvgjsPath1083" d="M0,2 L14,6 L0,11 L0,2" fill="#323232" stroke="#323232" stroke-width="2"></path></marker></defs><g id="SvgjsG1008" transform="translate(484,86)"><path id="SvgjsPath1009" d="M 0 4Q 0 0 4 0L 441 0Q 445 0 445 4L 445 249Q 445 253 441 253L 4 253Q 0 253 0 249Z" stroke="rgba(50,50,50,1)" stroke-width="2" fill-opacity="1" fill="#ffffff"></path><g id="SvgjsG1010"><text id="SvgjsText1011" font-family="Arial" text-anchor="middle" font-size="13px" width="435px" fill="#323232" font-weight="400" align="middle" anchor="middle" family="Arial" size="13px" weight="400" font-style="" opacity="1" y="9.12142857142857" transform="rotate(0)"><tspan id="SvgjsTspan1012" dy="16" x="222.5"><tspan id="SvgjsTspan1013" style="text-decoration:;">Vue Components</tspan></tspan></text></g></g><g id="SvgjsG1014" transform="translate(523,158)"><path id="SvgjsPath1015" d="M 0 4Q 0 0 4 0L 363 0Q 367 0 367 4L 367 110Q 367 114 363 114L 4 114Q 0 114 0 110Z" stroke="rgba(50,50,50,1)" stroke-width="2" fill-opacity="1" fill="#ffffff"></path><g id="SvgjsG1016"><text id="SvgjsText1017" font-family="Arial" text-anchor="middle" font-size="13px" width="357px" fill="#323232" font-weight="400" align="middle" anchor="middle" family="Arial" size="13px" weight="400" font-style="" opacity="1" y="-0.8071428571428576" transform="rotate(0)"></text></g></g><g id="SvgjsG1018" transform="translate(25,25)"><path id="SvgjsPath1019" d="M 0 0L 353 0L 353 481L 0 481Z" stroke="rgba(50,50,50,1)" stroke-width="2" fill="none"></path><path id="SvgjsPath1020" d="M 0 0L 353 0L 353 40L 0 40Z" stroke="rgba(50,50,50,1)" stroke-width="2" fill-opacity="1" fill="#44b78b"></path><g id="SvgjsG1021"><text id="SvgjsText1022" font-family="Arial" text-anchor="middle" font-size="16px" width="333px" fill="#323232" font-weight="400" align="middle" anchor="middle" family="Arial" size="16px" weight="400" font-style="" opacity="1" y="7.6" transform="rotate(0)"><tspan id="SvgjsTspan1023" dy="20" x="176.5"><tspan id="SvgjsTspan1024" style="text-decoration:;">Backend, Django</tspan></tspan></text></g></g><g id="SvgjsG1025" transform="translate(129,369)"><path id="SvgjsPath1026" d="M 21.75 0L 131.16666666666666 0C 148.77272727272728 0 148.77272727272728 83 131.16666666666666 83L 21.75 83C -7.25 83 -7.25 0 21.75 0ZM 131.16666666666666 0C 113.875 0 113.875 83 131.16666666666666 83C 113.875 83 113.875 0 131.16666666666666 0" stroke="rgba(50,50,50,1)" stroke-width="2" fill-opacity="1" fill="#ffffff"></path><g id="SvgjsG1027"><text id="SvgjsText1028" font-family="Arial" text-anchor="middle" font-size="13px" width="116px" fill="#323232" font-weight="400" align="middle" anchor="middle" family="Arial" size="13px" weight="400" font-style="" opacity="1" y="31.55" transform="rotate(0)"><tspan id="SvgjsTspan1029" dy="16" x="58"><tspan id="SvgjsTspan1030" style="text-decoration:;">SQlite</tspan></tspan></text></g></g><g id="SvgjsG1031" transform="translate(98.25,244)"><path id="SvgjsPath1032" d="M 0 0L 206.5 0L 206.5 67L 0 67Z" stroke="rgba(50,50,50,1)" stroke-width="2" fill-opacity="1" fill="#ffffff"></path><g id="SvgjsG1033"><text id="SvgjsText1034" font-family="Arial" text-anchor="middle" font-size="13px" width="187px" fill="#323232" font-weight="400" align="middle" anchor="middle" family="Arial" size="13px" weight="400" font-style="" opacity="1" y="23.55" transform="rotate(0)"><tspan id="SvgjsTspan1035" dy="16" x="103.5"><tspan id="SvgjsTspan1036" style="text-decoration:;">Django Model</tspan></tspan></text></g></g><g id="SvgjsG1037" transform="translate(98.25,111)"><path id="SvgjsPath1038" d="M 0 0L 206.5 0L 206.5 67L 0 67Z" stroke="rgba(50,50,50,1)" stroke-width="2" fill-opacity="1" fill="#ffffff"></path><g id="SvgjsG1039"><text id="SvgjsText1040" font-family="Arial" text-anchor="middle" font-size="13px" width="187px" fill="#323232" font-weight="400" align="middle" anchor="middle" family="Arial" size="13px" weight="400" font-style="" opacity="1" y="23.55" transform="rotate(0)"><tspan id="SvgjsTspan1041" dy="16" x="103.5"><tspan id="SvgjsTspan1042" style="text-decoration:;">View Logic &amp; App Logic</tspan></tspan></text></g></g><g id="SvgjsG1043"><path id="SvgjsPath1044" d="M201.5 244L201.5 211L201.5 211L201.5 178" stroke="#323232" stroke-width="2" fill="none" marker-end="url(#SvgjsMarker1045)"></path></g><g id="SvgjsG1047"><path id="SvgjsPath1048" d="M201.5 178L201.5 211L201.5 211L201.5 244" stroke="#323232" stroke-width="2" fill="none" marker-end="url(#SvgjsMarker1049)"></path></g><g id="SvgjsG1051"><path id="SvgjsPath1052" d="M201.5 311L201.5 340L201.5 340L201.5 369" stroke="#323232" stroke-width="2" fill="none" marker-end="url(#SvgjsMarker1053)"></path></g><g id="SvgjsG1055"><path id="SvgjsPath1056" d="M201.5 369L201.5 340L201.5 340L201.5 311" stroke="#323232" stroke-width="2" fill="none" marker-end="url(#SvgjsMarker1057)"></path></g><g id="SvgjsG1059" transform="translate(462,25)"><path id="SvgjsPath1060" d="M 0 0L 483 0L 483 481L 0 481Z" stroke="rgba(0,0,0,1)" stroke-width="2" fill="none"></path><path id="SvgjsPath1061" d="M 0 0L 483 0L 483 40L 0 40Z" stroke="rgba(0,0,0,1)" stroke-width="2" fill-opacity="1" fill="#409eff"></path><g id="SvgjsG1062"><text id="SvgjsText1063" font-family="Arial" text-anchor="middle" font-size="16px" width="463px" fill="#ffffff" font-weight="400" align="middle" anchor="middle" family="Arial" size="16px" weight="400" font-style="" opacity="1" y="7.6" transform="rotate(0)"><tspan id="SvgjsTspan1064" dy="20" x="241.5"><tspan id="SvgjsTspan1065" style="text-decoration:;">Frontend, Vue</tspan></tspan></text></g></g><g id="SvgjsG1066" transform="translate(627,395)"><path id="SvgjsPath1067" d="M 0 0L 159 0L 159 82L 0 82L 0 0ZM 20 0L 20 82M 0 16.4L 159 16.4" stroke="rgba(50,50,50,1)" stroke-width="2" fill-opacity="1" fill="#ffffff"></path><g id="SvgjsG1068"><text id="SvgjsText1069" font-family="Arial" text-anchor="middle" font-size="13px" width="139px" fill="#323232" font-weight="400" align="middle" anchor="middle" family="Arial" size="13px" weight="400" font-style="" opacity="1" y="23.249999999999996" transform="rotate(0)"><tspan id="SvgjsTspan1070" dy="16" x="89.5"><tspan id="SvgjsTspan1071" style="text-decoration:;">Localstorage</tspan></tspan><tspan id="SvgjsTspan1072" dy="16" x="89.5"><tspan id="SvgjsTspan1073" style="text-decoration:;">&amp;</tspan></tspan><tspan id="SvgjsTspan1074" dy="16" x="89.5"><tspan id="SvgjsTspan1075" style="text-decoration:;">SessionStorage</tspan></tspan></text></g></g><g id="SvgjsG1076"><path id="SvgjsPath1077" d="M706.5 395L706.5 367L706.5 367L706.5 339" stroke="#323232" stroke-width="2" fill="none" marker-end="url(#SvgjsMarker1078)"></path></g><g id="SvgjsG1080"><path id="SvgjsPath1081" d="M706.5 339L706.5 367L706.5 367L706.5 395" stroke="#323232" stroke-width="2" fill="none" marker-end="url(#SvgjsMarker1082)"></path></g><g id="SvgjsG1084" transform="translate(758,181.08247422680415)"><path id="SvgjsPath1085" d="M 18.271689497716896 0L 109.63013698630137 0C 91.35844748858447 0 91.35844748858447 67.83505154639175 109.63013698630137 67.83505154639175L 18.271689497716896 67.83505154639175C -6.448831587429492 67.83505154639175 -6.448831587429492 0 15.661448140900195 0Z" stroke="rgba(50,50,50,1)" stroke-width="2" fill-opacity="1" fill="#ffffff"></path><g id="SvgjsG1086"><text id="SvgjsText1087" font-family="Arial" text-anchor="middle" font-size="13px" width="83px" fill="#323232" font-weight="400" align="middle" anchor="middle" family="Arial" size="13px" weight="400" font-style="" opacity="1" y="15.967525773195877" transform="rotate(0)"><tspan id="SvgjsTspan1088" dy="16" x="52.463013698630135"><tspan id="SvgjsTspan1089" style="text-decoration:;">UI Framework</tspan></tspan><tspan id="SvgjsTspan1090" dy="16" x="52.463013698630135"><tspan id="SvgjsTspan1091" style="text-decoration:;">ElementUI</tspan></tspan></text></g></g><g id="SvgjsG1092" transform="translate(653.8904109589041,181.08247422680415)"><path id="SvgjsPath1093" d="M 18.271689497716896 0L 109.63013698630137 0C 91.35844748858447 0 91.35844748858447 67.83505154639175 109.63013698630137 67.83505154639175L 18.271689497716896 67.83505154639175C -6.448831587429492 67.83505154639175 -6.448831587429492 0 15.661448140900195 0Z" stroke="rgba(50,50,50,1)" stroke-width="2" fill-opacity="1" fill="#ffffff"></path><g id="SvgjsG1094"><text id="SvgjsText1095" font-family="Arial" text-anchor="middle" font-size="13px" width="83px" fill="#323232" font-weight="400" align="middle" anchor="middle" family="Arial" size="13px" weight="400" font-style="" opacity="1" y="7.967525773195876" transform="rotate(0)"><tspan id="SvgjsTspan1096" dy="16" x="52.463013698630135"><tspan id="SvgjsTspan1097" style="text-decoration:;">Charts </tspan></tspan><tspan id="SvgjsTspan1098" dy="16" x="52.463013698630135"><tspan id="SvgjsTspan1099" style="text-decoration:;">Visualzation</tspan></tspan><tspan id="SvgjsTspan1100" dy="16" x="52.463013698630135"><tspan id="SvgjsTspan1101" style="text-decoration:;">Echarts</tspan></tspan></text></g></g><g id="SvgjsG1102" transform="translate(549.8904109589041,181.08247422680415)"><path id="SvgjsPath1103" d="M 18.271689497716896 0L 109.63013698630137 0C 91.35844748858447 0 91.35844748858447 67.83505154639175 109.63013698630137 67.83505154639175L 18.271689497716896 67.83505154639175C -6.448831587429492 67.83505154639175 -6.448831587429492 0 15.661448140900195 0Z" stroke="rgba(50,50,50,1)" stroke-width="2" fill-opacity="1" fill="#ffffff"></path><g id="SvgjsG1104"><text id="SvgjsText1105" font-family="Arial" text-anchor="middle" font-size="13px" width="83px" fill="#323232" font-weight="400" align="middle" anchor="middle" family="Arial" size="13px" weight="400" font-style="" opacity="1" y="7.967525773195876" transform="rotate(0)"><tspan id="SvgjsTspan1106" dy="16" x="52.463013698630135"><tspan id="SvgjsTspan1107" style="text-decoration:;">Map </tspan></tspan><tspan id="SvgjsTspan1108" dy="16" x="52.463013698630135"><tspan id="SvgjsTspan1109" style="text-decoration:;">Visualization</tspan></tspan><tspan id="SvgjsTspan1110" dy="16" x="52.463013698630135"><tspan id="SvgjsTspan1111" style="text-decoration:;">Google API</tspan></tspan></text></g></g><g id="SvgjsG1112" transform="translate(285,114.5)"><path id="SvgjsPath1113" d="M 0 30L 30 0L 30 19.8L 192 19.8L 192 0L 222 30L 192 60L 192 40.2L 30 40.2L 30 60L 0 30Z" stroke="rgba(50,50,50,1)" stroke-width="2" fill-opacity="1" fill="#4fc08d"></path><g id="SvgjsG1114"><text id="SvgjsText1115" font-family="Arial" text-anchor="middle" font-size="13px" width="222px" fill="#323232" font-weight="400" align="middle" anchor="middle" family="Arial" size="13px" weight="400" font-style="" opacity="1" y="20.05" transform="rotate(0)"></text></g></g></svg>